<?xml version="1.0" encoding="UTF-8" standalone="no"?>
<!-- Created with Inkscape (http://www.inkscape.org/) -->

<svg
   xmlns:dc="http://purl.org/dc/elements/1.1/"
   xmlns:cc="http://creativecommons.org/ns#"
   xmlns:rdf="http://www.w3.org/1999/02/22-rdf-syntax-ns#"
   xmlns:svg="http://www.w3.org/2000/svg"
   xmlns="http://www.w3.org/2000/svg"
   xmlns:sodipodi="http://sodipodi.sourceforge.net/DTD/sodipodi-0.dtd"
   xmlns:inkscape="http://www.inkscape.org/namespaces/inkscape"
   id="svg2"
   version="1.1"
   inkscape:version="0.91 r13725"
   xml:space="preserve"
   width="660"
   height="200"
   viewBox="0 0 660 200"
   sodipodi:docname="lenet.svg"><metadata
     id="metadata8"><rdf:RDF><cc:Work
         rdf:about=""><dc:format>image/svg+xml</dc:format><dc:type
           rdf:resource="http://purl.org/dc/dcmitype/StillImage" /><dc:title></dc:title></cc:Work></rdf:RDF></metadata><defs
     id="defs6" /><sodipodi:namedview
     pagecolor="#ffffff"
     bordercolor="#666666"
     borderopacity="1"
     objecttolerance="10"
     gridtolerance="10"
     guidetolerance="10"
     inkscape:pageopacity="0"
     inkscape:pageshadow="2"
     inkscape:window-width="1366"
     inkscape:window-height="704"
     id="namedview4"
     showgrid="false"
     inkscape:zoom="0.95353535"
     inkscape:cx="345.11446"
     inkscape:cy="265.31893"
     inkscape:window-x="0"
     inkscape:window-y="27"
     inkscape:window-maximized="1"
     inkscape:current-layer="g10" /><g
     id="g10"
     inkscape:groupmode="layer"
     inkscape:label="lecun-98"
     transform="matrix(1.25,0,0,-1.25,0,200)"><path
       d="m 274.77617,118.35665 11.1153,0 0,11.1153 -11.1153,0 0,-11.1153 z"
       style="fill:#c3c3c3;fill-opacity:1;fill-rule:evenodd;stroke:none"
       id="path26"
       inkscape:connector-curvature="0" /><path
       d="m 274.77617,118.35665 11.1153,0 0,11.1153 -11.1153,0 0,-11.1153 z"
       style="fill:none;stroke:#c3c3c3;stroke-width:1.85254002;stroke-linecap:butt;stroke-linejoin:miter;stroke-miterlimit:10;stroke-dasharray:none;stroke-opacity:1"
       id="path28"
       inkscape:connector-curvature="0" /><path
       d="m 280.33417,112.79965 11.1153,0 0,11.1153 -11.1153,0 0,-11.1153 z"
       style="fill:#808080;fill-opacity:1;fill-rule:evenodd;stroke:none"
       id="path30"
       inkscape:connector-curvature="0" /><path
       d="m 280.33417,112.79965 11.1153,0 0,11.1153 -11.1153,0 0,-11.1153 z"
       style="fill:none;stroke:#808080;stroke-width:1.85254002;stroke-linecap:butt;stroke-linejoin:miter;stroke-miterlimit:10;stroke-dasharray:none;stroke-opacity:1"
       id="path32"
       inkscape:connector-curvature="0" /><path
       d="m 285.89117,107.24165 11.1153,0 0,11.1153 -11.1153,0 0,-11.1153 z"
       style="fill:#c3c3c3;fill-opacity:1;fill-rule:evenodd;stroke:none"
       id="path34"
       inkscape:connector-curvature="0" /><path
       d="m 285.89117,107.24165 11.1153,0 0,11.1153 -11.1153,0 0,-11.1153 z"
       style="fill:none;stroke:#c3c3c3;stroke-width:1.85254002;stroke-linecap:butt;stroke-linejoin:miter;stroke-miterlimit:10;stroke-dasharray:none;stroke-opacity:1"
       id="path36"
       inkscape:connector-curvature="0" /><path
       d="m 291.44917,101.68365 11.1153,0 0,11.1153 -11.1153,0 0,-11.1153 z"
       style="fill:#808080;fill-opacity:1;fill-rule:evenodd;stroke:none"
       id="path38"
       inkscape:connector-curvature="0" /><path
       d="m 291.44917,101.68365 11.1153,0 0,11.1153 -11.1153,0 0,-11.1153 z"
       style="fill:none;stroke:#808080;stroke-width:1.85254002;stroke-linecap:butt;stroke-linejoin:miter;stroke-miterlimit:10;stroke-dasharray:none;stroke-opacity:1"
       id="path40"
       inkscape:connector-curvature="0" /><path
       d="m 219.74917,112.18065 22.2307,0 0,22.2307 -22.2307,0 0,-22.2307 z"
       style="fill:#c3c3c3;fill-opacity:1;fill-rule:evenodd;stroke:none"
       id="path42"
       inkscape:connector-curvature="0" /><path
       d="m 219.74917,112.18065 22.2307,0 0,22.2307 -22.2307,0 0,-22.2307 z"
       style="fill:none;stroke:#c3c3c3;stroke-width:1.85254002;stroke-linecap:butt;stroke-linejoin:miter;stroke-miterlimit:10;stroke-dasharray:none;stroke-opacity:1"
       id="path44"
       inkscape:connector-curvature="0" /><path
       d="m 225.30717,106.62365 22.2307,0 0,22.2307 -22.2307,0 0,-22.2307 z"
       style="fill:#808080;fill-opacity:1;fill-rule:evenodd;stroke:none"
       id="path46"
       inkscape:connector-curvature="0" /><path
       d="m 225.30717,106.62365 22.2307,0 0,22.2307 -22.2307,0 0,-22.2307 z"
       style="fill:none;stroke:#808080;stroke-width:1.85254002;stroke-linecap:butt;stroke-linejoin:miter;stroke-miterlimit:10;stroke-dasharray:none;stroke-opacity:1"
       id="path48"
       inkscape:connector-curvature="0" /><path
       d="m 230.86517,101.06565 22.2307,0 0,22.2307 -22.2307,0 0,-22.2307 z"
       style="fill:#c3c3c3;fill-opacity:1;fill-rule:evenodd;stroke:none"
       id="path50"
       inkscape:connector-curvature="0" /><path
       d="m 230.86517,101.06565 22.2307,0 0,22.2307 -22.2307,0 0,-22.2307 z"
       style="fill:none;stroke:#c3c3c3;stroke-width:1.85254002;stroke-linecap:butt;stroke-linejoin:miter;stroke-miterlimit:10;stroke-dasharray:none;stroke-opacity:1"
       id="path52"
       inkscape:connector-curvature="0" /><path
       d="m 236.42217,95.507636 22.2307,0 0,22.230714 -22.2307,0 0,-22.230714 z"
       style="fill:#808080;fill-opacity:1;fill-rule:evenodd;stroke:none"
       id="path54"
       inkscape:connector-curvature="0" /><path
       d="m 236.42217,95.507636 22.2307,0 0,22.230714 -22.2307,0 0,-22.230714 z"
       style="fill:none;stroke:#808080;stroke-width:1.85254002;stroke-linecap:butt;stroke-linejoin:miter;stroke-miterlimit:10;stroke-dasharray:none;stroke-opacity:1"
       id="path56"
       inkscape:connector-curvature="0" /><path
       d="m 91.85617,53.521626 66.6916,0 0,66.691624 -66.6916,0 0,-66.691624 z"
       style="fill:#c3c3c3;fill-opacity:1;fill-rule:evenodd;stroke:none"
       id="path58"
       inkscape:connector-curvature="0" /><path
       d="m 91.85617,53.521626 66.6916,0 0,66.691624 -66.6916,0 0,-66.691624 z"
       style="fill:none;stroke:#c3c3c3;stroke-width:1.85254002;stroke-linecap:butt;stroke-linejoin:miter;stroke-miterlimit:10;stroke-dasharray:none;stroke-opacity:1"
       id="path60"
       inkscape:connector-curvature="0" /><path
       d="m 97.41417,47.963626 66.6916,0 0,66.691624 -66.6916,0 0,-66.691624 z"
       style="fill:#808080;fill-opacity:1;fill-rule:evenodd;stroke:none"
       id="path62"
       inkscape:connector-curvature="0" /><path
       d="m 97.41417,47.963626 66.6916,0 0,66.691624 -66.6916,0 0,-66.691624 z"
       style="fill:none;stroke:#808080;stroke-width:1.85254002;stroke-linecap:butt;stroke-linejoin:miter;stroke-miterlimit:10;stroke-dasharray:none;stroke-opacity:1"
       id="path64"
       inkscape:connector-curvature="0" /><path
       d="m 9.1032726,29.505626 77.8067974,0 0,77.806824 -77.8067974,0 0,-77.806824 z"
       style="fill:#c3c3c3;fill-opacity:1;fill-rule:evenodd;stroke:none"
       id="path66"
       inkscape:connector-curvature="0" /><path
       d="m 9.1032726,29.505626 77.8067974,0 0,77.806824 -77.8067974,0 0,-77.806824 z"
       style="fill:none;stroke:#c3c3c3;stroke-width:1.85254002;stroke-linecap:butt;stroke-linejoin:miter;stroke-miterlimit:10;stroke-dasharray:none;stroke-opacity:1"
       id="path68"
       inkscape:connector-curvature="0" /><path
       d="m 103.58317,41.177626 66.6916,0 0,66.691624 -66.6916,0 0,-66.691624 z"
       style="fill:#c3c3c3;fill-opacity:1;fill-rule:evenodd;stroke:none"
       id="path70"
       inkscape:connector-curvature="0" /><path
       d="m 103.58317,41.177626 66.6916,0 0,66.691624 -66.6916,0 0,-66.691624 z"
       style="fill:none;stroke:#c3c3c3;stroke-width:1.85254002;stroke-linecap:butt;stroke-linejoin:miter;stroke-miterlimit:10;stroke-dasharray:none;stroke-opacity:1"
       id="path72"
       inkscape:connector-curvature="0" /><path
       d="m 109.14017,35.619626 66.6916,0 0,66.691624 -66.6916,0 0,-66.691624 z"
       style="fill:#808080;fill-opacity:1;fill-rule:evenodd;stroke:none"
       id="path74"
       inkscape:connector-curvature="0" /><path
       d="m 109.14017,35.619626 66.6916,0 0,66.691624 -66.6916,0 0,-66.691624 z"
       style="fill:none;stroke:#808080;stroke-width:1.85254002;stroke-linecap:butt;stroke-linejoin:miter;stroke-miterlimit:10;stroke-dasharray:none;stroke-opacity:1"
       id="path76"
       inkscape:connector-curvature="0" /><path
       d="m 241.96817,91.19163 22.2307,0 0,22.23072 -22.2307,0 0,-22.23072 z"
       style="fill:#c3c3c3;fill-opacity:1;fill-rule:evenodd;stroke:none"
       id="path78"
       inkscape:connector-curvature="0" /><path
       d="m 241.96817,91.19163 22.2307,0 0,22.23072 -22.2307,0 0,-22.23072 z"
       style="fill:none;stroke:#c3c3c3;stroke-width:1.85254002;stroke-linecap:butt;stroke-linejoin:miter;stroke-miterlimit:10;stroke-dasharray:none;stroke-opacity:1"
       id="path80"
       inkscape:connector-curvature="0" /><path
       d="m 247.52517,85.63363 22.2307,0 0,22.23072 -22.2307,0 0,-22.23072 z"
       style="fill:#808080;fill-opacity:1;fill-rule:evenodd;stroke:none"
       id="path82"
       inkscape:connector-curvature="0" /><path
       d="m 247.52517,85.63363 22.2307,0 0,22.23072 -22.2307,0 0,-22.23072 z"
       style="fill:none;stroke:#808080;stroke-width:1.85254002;stroke-linecap:butt;stroke-linejoin:miter;stroke-miterlimit:10;stroke-dasharray:none;stroke-opacity:1"
       id="path84"
       inkscape:connector-curvature="0" /><path
       d="m 253.08317,80.07663 22.2307,0 0,22.23072 -22.2307,0 0,-22.23072 z"
       style="fill:#c3c3c3;fill-opacity:1;fill-rule:evenodd;stroke:none"
       id="path86"
       inkscape:connector-curvature="0" /><path
       d="m 253.08317,80.07663 22.2307,0 0,22.23072 -22.2307,0 0,-22.23072 z"
       style="fill:none;stroke:#c3c3c3;stroke-width:1.85254002;stroke-linecap:butt;stroke-linejoin:miter;stroke-miterlimit:10;stroke-dasharray:none;stroke-opacity:1"
       id="path88"
       inkscape:connector-curvature="0" /><path
       d="m 258.64017,74.51863 22.2307,0 0,22.230706 -22.2307,0 0,-22.230706 z"
       style="fill:#808080;fill-opacity:1;fill-rule:evenodd;stroke:none"
       id="path90"
       inkscape:connector-curvature="0" /><path
       d="m 258.64017,74.51863 22.2307,0 0,22.230706 -22.2307,0 0,-22.230706 z"
       style="fill:none;stroke:#808080;stroke-width:1.85254002;stroke-linecap:butt;stroke-linejoin:miter;stroke-miterlimit:10;stroke-dasharray:none;stroke-opacity:1"
       id="path92"
       inkscape:connector-curvature="0" /><path
       d="m 264.19817,68.96063 22.2307,0 0,22.2307 -22.2307,0 0,-22.2307 z"
       style="fill:#c3c3c3;fill-opacity:1;fill-rule:evenodd;stroke:none"
       id="path94"
       inkscape:connector-curvature="0" /><path
       d="m 264.19817,68.96063 22.2307,0 0,22.2307 -22.2307,0 0,-22.2307 z"
       style="fill:none;stroke:#c3c3c3;stroke-width:1.85254002;stroke-linecap:butt;stroke-linejoin:miter;stroke-miterlimit:10;stroke-dasharray:none;stroke-opacity:1"
       id="path96"
       inkscape:connector-curvature="0" /><path
       d="m 269.75617,63.40363 22.2307,0 0,22.2307 -22.2307,0 0,-22.2307 z"
       style="fill:#808080;fill-opacity:1;fill-rule:evenodd;stroke:none"
       id="path98"
       inkscape:connector-curvature="0" /><path
       d="m 269.75617,63.40363 22.2307,0 0,22.2307 -22.2307,0 0,-22.2307 z"
       style="fill:none;stroke:#808080;stroke-width:1.85254002;stroke-linecap:butt;stroke-linejoin:miter;stroke-miterlimit:10;stroke-dasharray:none;stroke-opacity:1"
       id="path100"
       inkscape:connector-curvature="0" /><path
       d="m 275.31317,57.845626 22.2307,0 0,22.230704 -22.2307,0 0,-22.230704 z"
       style="fill:#c3c3c3;fill-opacity:1;fill-rule:evenodd;stroke:none"
       id="path102"
       inkscape:connector-curvature="0" /><path
       d="m 275.31317,57.845626 22.2307,0 0,22.230704 -22.2307,0 0,-22.230704 z"
       style="fill:none;stroke:#c3c3c3;stroke-width:1.85254002;stroke-linecap:butt;stroke-linejoin:miter;stroke-miterlimit:10;stroke-dasharray:none;stroke-opacity:1"
       id="path104"
       inkscape:connector-curvature="0" /><path
       d="m 280.87117,52.287626 22.2307,0 0,22.230704 -22.2307,0 0,-22.230704 z"
       style="fill:#808080;fill-opacity:1;fill-rule:evenodd;stroke:none"
       id="path106"
       inkscape:connector-curvature="0" /><path
       d="m 280.87117,52.287626 22.2307,0 0,22.230704 -22.2307,0 0,-22.230704 z"
       style="fill:none;stroke:#808080;stroke-width:1.85254002;stroke-linecap:butt;stroke-linejoin:miter;stroke-miterlimit:10;stroke-dasharray:none;stroke-opacity:1"
       id="path108"
       inkscape:connector-curvature="0" /><path
       d="m 286.42917,46.730626 22.2307,0 0,22.230704 -22.2307,0 0,-22.230704 z"
       style="fill:#c3c3c3;fill-opacity:1;fill-rule:evenodd;stroke:none"
       id="path110"
       inkscape:connector-curvature="0" /><path
       d="m 286.42917,46.730626 22.2307,0 0,22.230704 -22.2307,0 0,-22.230704 z"
       style="fill:none;stroke:#c3c3c3;stroke-width:1.85254002;stroke-linecap:butt;stroke-linejoin:miter;stroke-miterlimit:10;stroke-dasharray:none;stroke-opacity:1"
       id="path112"
       inkscape:connector-curvature="0" /><path
       d="m 291.98617,41.172626 22.2307,0 0,22.230704 -22.2307,0 0,-22.230704 z"
       style="fill:#808080;fill-opacity:1;fill-rule:evenodd;stroke:none"
       id="path114"
       inkscape:connector-curvature="0" /><path
       d="m 291.98617,41.172626 22.2307,0 0,22.230704 -22.2307,0 0,-22.230704 z"
       style="fill:none;stroke:#808080;stroke-width:1.85254002;stroke-linecap:butt;stroke-linejoin:miter;stroke-miterlimit:10;stroke-dasharray:none;stroke-opacity:1"
       id="path116"
       inkscape:connector-curvature="0" /><path
       d="m 297.54417,35.615626 22.2307,0 0,22.2307 -22.2307,0 0,-22.2307 z"
       style="fill:#c3c3c3;fill-opacity:1;fill-rule:evenodd;stroke:none"
       id="path118"
       inkscape:connector-curvature="0" /><path
       d="m 297.54417,35.615626 22.2307,0 0,22.2307 -22.2307,0 0,-22.2307 z"
       style="fill:none;stroke:#c3c3c3;stroke-width:1.85254002;stroke-linecap:butt;stroke-linejoin:miter;stroke-miterlimit:10;stroke-dasharray:none;stroke-opacity:1"
       id="path120"
       inkscape:connector-curvature="0" /><path
       d="m 303.10117,30.057626 22.2307,0 0,22.2307 -22.2307,0 0,-22.2307 z"
       style="fill:#808080;fill-opacity:1;fill-rule:evenodd;stroke:none"
       id="path122"
       inkscape:connector-curvature="0" /><path
       d="m 303.10117,30.057626 22.2307,0 0,22.2307 -22.2307,0 0,-22.2307 z"
       style="fill:none;stroke:#808080;stroke-width:1.85254002;stroke-linecap:butt;stroke-linejoin:miter;stroke-miterlimit:10;stroke-dasharray:none;stroke-opacity:1"
       id="path124"
       inkscape:connector-curvature="0" /><path
       d="m 295.76217,97.988636 11.1153,0 0,11.115314 -11.1153,0 0,-11.115314 z"
       style="fill:#c3c3c3;fill-opacity:1;fill-rule:evenodd;stroke:none"
       id="path126"
       inkscape:connector-curvature="0" /><path
       d="m 295.76217,97.988636 11.1153,0 0,11.115314 -11.1153,0 0,-11.115314 z"
       style="fill:none;stroke:#c3c3c3;stroke-width:1.85254002;stroke-linecap:butt;stroke-linejoin:miter;stroke-miterlimit:10;stroke-dasharray:none;stroke-opacity:1"
       id="path128"
       inkscape:connector-curvature="0" /><path
       d="m 301.31917,92.430636 11.1153,0 0,11.115314 -11.1153,0 0,-11.115314 z"
       style="fill:#808080;fill-opacity:1;fill-rule:evenodd;stroke:none"
       id="path130"
       inkscape:connector-curvature="0" /><path
       d="m 301.31917,92.430636 11.1153,0 0,11.115314 -11.1153,0 0,-11.115314 z"
       style="fill:none;stroke:#808080;stroke-width:1.85254002;stroke-linecap:butt;stroke-linejoin:miter;stroke-miterlimit:10;stroke-dasharray:none;stroke-opacity:1"
       id="path132"
       inkscape:connector-curvature="0" /><path
       d="m 306.87717,86.87263 11.1153,0 0,11.115306 -11.1153,0 0,-11.115306 z"
       style="fill:#c3c3c3;fill-opacity:1;fill-rule:evenodd;stroke:none"
       id="path134"
       inkscape:connector-curvature="0" /><path
       d="m 306.87717,86.87263 11.1153,0 0,11.115306 -11.1153,0 0,-11.115306 z"
       style="fill:none;stroke:#c3c3c3;stroke-width:1.85254002;stroke-linecap:butt;stroke-linejoin:miter;stroke-miterlimit:10;stroke-dasharray:none;stroke-opacity:1"
       id="path136"
       inkscape:connector-curvature="0" /><path
       d="m 312.43517,81.31563 11.1153,0 0,11.115306 -11.1153,0 0,-11.115306 z"
       style="fill:#808080;fill-opacity:1;fill-rule:evenodd;stroke:none"
       id="path138"
       inkscape:connector-curvature="0" /><path
       d="m 312.43517,81.31563 11.1153,0 0,11.115306 -11.1153,0 0,-11.115306 z"
       style="fill:none;stroke:#808080;stroke-width:1.85254002;stroke-linecap:butt;stroke-linejoin:miter;stroke-miterlimit:10;stroke-dasharray:none;stroke-opacity:1"
       id="path140"
       inkscape:connector-curvature="0" /><path
       d="m 317.99217,75.75763 11.1153,0 0,11.1153 -11.1153,0 0,-11.1153 z"
       style="fill:#c3c3c3;fill-opacity:1;fill-rule:evenodd;stroke:none"
       id="path142"
       inkscape:connector-curvature="0" /><path
       d="m 317.99217,75.75763 11.1153,0 0,11.1153 -11.1153,0 0,-11.1153 z"
       style="fill:none;stroke:#c3c3c3;stroke-width:1.85254002;stroke-linecap:butt;stroke-linejoin:miter;stroke-miterlimit:10;stroke-dasharray:none;stroke-opacity:1"
       id="path144"
       inkscape:connector-curvature="0" /><path
       d="m 323.55017,70.19963 11.1153,0 0,11.1153 -11.1153,0 0,-11.1153 z"
       style="fill:#808080;fill-opacity:1;fill-rule:evenodd;stroke:none"
       id="path146"
       inkscape:connector-curvature="0" /><path
       d="m 323.55017,70.19963 11.1153,0 0,11.1153 -11.1153,0 0,-11.1153 z"
       style="fill:none;stroke:#808080;stroke-width:1.85254002;stroke-linecap:butt;stroke-linejoin:miter;stroke-miterlimit:10;stroke-dasharray:none;stroke-opacity:1"
       id="path148"
       inkscape:connector-curvature="0" /><path
       d="m 329.10817,64.64263 11.1153,0 0,11.1153 -11.1153,0 0,-11.1153 z"
       style="fill:#c3c3c3;fill-opacity:1;fill-rule:evenodd;stroke:none"
       id="path150"
       inkscape:connector-curvature="0" /><path
       d="m 329.10817,64.64263 11.1153,0 0,11.1153 -11.1153,0 0,-11.1153 z"
       style="fill:none;stroke:#c3c3c3;stroke-width:1.85254002;stroke-linecap:butt;stroke-linejoin:miter;stroke-miterlimit:10;stroke-dasharray:none;stroke-opacity:1"
       id="path152"
       inkscape:connector-curvature="0" /><path
       d="m 334.66517,59.084626 11.1153,0 0,11.115304 -11.1153,0 0,-11.115304 z"
       style="fill:#808080;fill-opacity:1;fill-rule:evenodd;stroke:none"
       id="path154"
       inkscape:connector-curvature="0" /><path
       d="m 334.66517,59.084626 11.1153,0 0,11.115304 -11.1153,0 0,-11.115304 z"
       style="fill:none;stroke:#808080;stroke-width:1.85254002;stroke-linecap:butt;stroke-linejoin:miter;stroke-miterlimit:10;stroke-dasharray:none;stroke-opacity:1"
       id="path156"
       inkscape:connector-curvature="0" /><path
       d="m 340.22317,53.527626 11.1153,0 0,11.115304 -11.1153,0 0,-11.115304 z"
       style="fill:#c3c3c3;fill-opacity:1;fill-rule:evenodd;stroke:none"
       id="path158"
       inkscape:connector-curvature="0" /><path
       d="m 340.22317,53.527626 11.1153,0 0,11.115304 -11.1153,0 0,-11.115304 z"
       style="fill:none;stroke:#c3c3c3;stroke-width:1.85254002;stroke-linecap:butt;stroke-linejoin:miter;stroke-miterlimit:10;stroke-dasharray:none;stroke-opacity:1"
       id="path160"
       inkscape:connector-curvature="0" /><path
       d="m 345.78017,47.969626 11.1153,0 0,11.1153 -11.1153,0 0,-11.1153 z"
       style="fill:#808080;fill-opacity:1;fill-rule:evenodd;stroke:none"
       id="path162"
       inkscape:connector-curvature="0" /><path
       d="m 345.78017,47.969626 11.1153,0 0,11.1153 -11.1153,0 0,-11.1153 z"
       style="fill:none;stroke:#808080;stroke-width:1.85254002;stroke-linecap:butt;stroke-linejoin:miter;stroke-miterlimit:10;stroke-dasharray:none;stroke-opacity:1"
       id="path164"
       inkscape:connector-curvature="0" /><path
       d="m 351.33817,42.411626 11.1153,0 0,11.1153 -11.1153,0 0,-11.1153 z"
       style="fill:#c3c3c3;fill-opacity:1;fill-rule:evenodd;stroke:none"
       id="path166"
       inkscape:connector-curvature="0" /><path
       d="m 351.33817,42.411626 11.1153,0 0,11.1153 -11.1153,0 0,-11.1153 z"
       style="fill:none;stroke:#c3c3c3;stroke-width:1.85254002;stroke-linecap:butt;stroke-linejoin:miter;stroke-miterlimit:10;stroke-dasharray:none;stroke-opacity:1"
       id="path168"
       inkscape:connector-curvature="0" /><path
       d="m 356.89617,36.854626 11.1153,0 0,11.1153 -11.1153,0 0,-11.1153 z"
       style="fill:#808080;fill-opacity:1;fill-rule:evenodd;stroke:none"
       id="path170"
       inkscape:connector-curvature="0" /><path
       d="m 356.89617,36.854626 11.1153,0 0,11.1153 -11.1153,0 0,-11.1153 z"
       style="fill:none;stroke:#808080;stroke-width:1.85254002;stroke-linecap:butt;stroke-linejoin:miter;stroke-miterlimit:10;stroke-dasharray:none;stroke-opacity:1"
       id="path172"
       inkscape:connector-curvature="0" /><path
       d="m 139.71117,68.40763 5.55762,0 0,5.55762 -5.55762,0 0,-5.55762 z"
       style="fill:none;stroke:#000000;stroke-width:0.61751497;stroke-linecap:butt;stroke-linejoin:miter;stroke-miterlimit:10;stroke-dasharray:none;stroke-opacity:1"
       id="path174"
       inkscape:connector-curvature="0" /><path
       d="m 187.69417,67.72363 33.3458,0 0,33.34582 -33.3458,0 0,-33.34582 z"
       style="fill:#c3c3c3;fill-opacity:1;fill-rule:evenodd;stroke:none"
       id="path176"
       inkscape:connector-curvature="0" /><path
       d="m 187.69417,67.72363 33.3458,0 0,33.34582 -33.3458,0 0,-33.34582 z"
       style="fill:none;stroke:#c3c3c3;stroke-width:1.85254002;stroke-linecap:butt;stroke-linejoin:miter;stroke-miterlimit:10;stroke-dasharray:none;stroke-opacity:1"
       id="path178"
       inkscape:connector-curvature="0" /><path
       d="m 193.25217,62.16663 33.3458,0 0,33.345806 -33.3458,0 0,-33.345806 z"
       style="fill:#808080;fill-opacity:1;fill-rule:evenodd;stroke:none"
       id="path180"
       inkscape:connector-curvature="0" /><path
       d="m 193.25217,62.16663 33.3458,0 0,33.345806 -33.3458,0 0,-33.345806 z"
       style="fill:none;stroke:#808080;stroke-width:1.85254002;stroke-linecap:butt;stroke-linejoin:miter;stroke-miterlimit:10;stroke-dasharray:none;stroke-opacity:1"
       id="path182"
       inkscape:connector-curvature="0" /><path
       d="m 196.95117,57.849626 33.3458,0 0,33.345804 -33.3458,0 0,-33.345804 z"
       style="fill:#c3c3c3;fill-opacity:1;fill-rule:evenodd;stroke:none"
       id="path184"
       inkscape:connector-curvature="0" /><path
       d="m 196.95117,57.849626 33.3458,0 0,33.345804 -33.3458,0 0,-33.345804 z"
       style="fill:none;stroke:#c3c3c3;stroke-width:1.85254002;stroke-linecap:butt;stroke-linejoin:miter;stroke-miterlimit:10;stroke-dasharray:none;stroke-opacity:1"
       id="path186"
       inkscape:connector-curvature="0" /><path
       d="m 202.50917,52.292626 33.3458,0 0,33.345804 -33.3458,0 0,-33.345804 z"
       style="fill:#808080;fill-opacity:1;fill-rule:evenodd;stroke:none"
       id="path188"
       inkscape:connector-curvature="0" /><path
       d="m 202.50917,52.292626 33.3458,0 0,33.345804 -33.3458,0 0,-33.345804 z"
       style="fill:none;stroke:#808080;stroke-width:1.85254002;stroke-linecap:butt;stroke-linejoin:miter;stroke-miterlimit:10;stroke-dasharray:none;stroke-opacity:1"
       id="path190"
       inkscape:connector-curvature="0" /><path
       d="m 208.06617,46.734626 33.3458,0 0,33.345804 -33.3458,0 0,-33.345804 z"
       style="fill:#c3c3c3;fill-opacity:1;fill-rule:evenodd;stroke:none"
       id="path192"
       inkscape:connector-curvature="0" /><path
       d="m 208.06617,46.734626 33.3458,0 0,33.345804 -33.3458,0 0,-33.345804 z"
       style="fill:none;stroke:#c3c3c3;stroke-width:1.85254002;stroke-linecap:butt;stroke-linejoin:miter;stroke-miterlimit:10;stroke-dasharray:none;stroke-opacity:1"
       id="path194"
       inkscape:connector-curvature="0" /><path
       d="m 213.62417,41.177626 33.3458,0 0,33.345804 -33.3458,0 0,-33.345804 z"
       style="fill:#808080;fill-opacity:1;fill-rule:evenodd;stroke:none"
       id="path196"
       inkscape:connector-curvature="0" /><path
       d="m 213.62417,41.177626 33.3458,0 0,33.345804 -33.3458,0 0,-33.345804 z"
       style="fill:none;stroke:#808080;stroke-width:1.85254002;stroke-linecap:butt;stroke-linejoin:miter;stroke-miterlimit:10;stroke-dasharray:none;stroke-opacity:1"
       id="path198"
       inkscape:connector-curvature="0" /><path
       d="m 230.85617,51.737626 13.8941,0 0,13.894104 -13.8941,0 0,-13.894104 z"
       style="fill:none;stroke:#000000;stroke-width:0.61751497;stroke-linecap:butt;stroke-linejoin:miter;stroke-miterlimit:10;stroke-dasharray:none;stroke-opacity:1"
       id="path200"
       inkscape:connector-curvature="0" /><path
       d="m 304.09817,33.517626 5.55764,0 0,5.55764 -5.55764,0 0,-5.55764 z"
       style="fill:none;stroke:#000000;stroke-width:0.61751497;stroke-linecap:butt;stroke-linejoin:miter;stroke-miterlimit:10;stroke-dasharray:none;stroke-opacity:1"
       id="path202"
       inkscape:connector-curvature="0" /><path
       d="m 59.125574,40.619626 110.596596,0"
       style="fill:none;stroke:#ff0000;stroke-width:0.61751497;stroke-linecap:butt;stroke-linejoin:miter;stroke-miterlimit:10;stroke-dasharray:none;stroke-opacity:1"
       id="path204"
       inkscape:connector-curvature="0" /><path
       d="m 139.71117,73.96563 82.809,-8.337"
       style="fill:none;stroke:#000000;stroke-width:0.61751497;stroke-linecap:butt;stroke-linejoin:miter;stroke-miterlimit:10;stroke-dasharray:none;stroke-opacity:1"
       id="path206"
       inkscape:connector-curvature="0" /><path
       d="m 139.71117,68.40763 82.809,-2.779"
       style="fill:none;stroke:#000000;stroke-width:0.61751497;stroke-linecap:butt;stroke-linejoin:miter;stroke-miterlimit:10;stroke-dasharray:none;stroke-opacity:1"
       id="path208"
       inkscape:connector-curvature="0" /><path
       d="m 244.75017,65.62863 77.251,-19.451004"
       style="fill:none;stroke:#000000;stroke-width:0.61751497;stroke-linecap:butt;stroke-linejoin:miter;stroke-miterlimit:10;stroke-dasharray:none;stroke-opacity:1"
       id="path210"
       inkscape:connector-curvature="0" /><path
       d="m 230.85617,65.62863 91.145,-19.451004"
       style="fill:none;stroke:#000000;stroke-width:0.61751497;stroke-linecap:butt;stroke-linejoin:miter;stroke-miterlimit:10;stroke-dasharray:none;stroke-opacity:1"
       id="path212"
       inkscape:connector-curvature="0" /><path
       d="m 230.85617,51.734626 91.145,-5.557"
       style="fill:none;stroke:#000000;stroke-width:0.61751497;stroke-linecap:butt;stroke-linejoin:miter;stroke-miterlimit:10;stroke-dasharray:none;stroke-opacity:1"
       id="path214"
       inkscape:connector-curvature="0" /><path
       d="m 244.75017,51.734626 77.251,-5.557"
       style="fill:none;stroke:#000000;stroke-width:0.61751497;stroke-linecap:butt;stroke-linejoin:miter;stroke-miterlimit:10;stroke-dasharray:none;stroke-opacity:1"
       id="path216"
       inkscape:connector-curvature="0" /><g
       id="g218"
       transform="translate(-35.850827,-585.22035)"><text
         transform="matrix(1,-4e-8,-4e-8,-1,67.4921,715.456)"
         style="font-variant:normal;font-weight:normal;font-size:7.78068018px;font-family:Helvetica;-inkscape-font-specification:Helvetica;writing-mode:lr-tb;fill:#000000;fill-opacity:1;fill-rule:nonzero;stroke:none"
         id="text220"><tspan
           x="0 2.163029 7.7806802 12.970393 18.588045 23.342039"
           y="0"
           sodipodi:role="line"
           id="tspan222">INPUT </tspan><tspan
           x="0 4.3260579 8.6521158 12.542457 16.868515"
           y="7.7806602"
           sodipodi:role="line"
           id="tspan224">32x32</tspan></text>
</g><path
       d="m 309.75217,33.460626 50.309,6.173"
       style="fill:none;stroke:#000000;stroke-width:0.61751497;stroke-linecap:butt;stroke-linejoin:miter;stroke-miterlimit:10;stroke-dasharray:none;stroke-opacity:1"
       id="path226"
       inkscape:connector-curvature="0" /><path
       d="m 304.19717,39.016626 55.247,0.617"
       style="fill:none;stroke:#000000;stroke-width:0.61751497;stroke-linecap:butt;stroke-linejoin:miter;stroke-miterlimit:10;stroke-dasharray:none;stroke-opacity:1"
       id="path228"
       inkscape:connector-curvature="0" /><path
       d="m 336.29617,107.53565 67.901,-67.593024 -12.654,0.308 -66.359,67.285024"
       style="fill:#808080;fill-opacity:1;fill-rule:evenodd;stroke:none"
       id="path230"
       inkscape:connector-curvature="0" /><path
       d="m 336.29617,107.53565 67.901,-67.593024 -12.654,0.308 -66.359,67.285024 11.112,0 z"
       style="fill:none;stroke:#808080;stroke-width:1.85254002;stroke-linecap:butt;stroke-linejoin:miter;stroke-miterlimit:10;stroke-dasharray:none;stroke-opacity:1"
       id="path232"
       inkscape:connector-curvature="0" /><path
       d="m 407.28417,105.68365 56.791,-54.939024 -12.346,-0.617 -55.556,55.556024"
       style="fill:#808080;fill-opacity:1;fill-rule:evenodd;stroke:none"
       id="path234"
       inkscape:connector-curvature="0" /><path
       d="m 407.28417,105.68365 56.791,-54.939024 -12.346,-0.617 -55.556,55.556024 11.111,0 z"
       style="fill:none;stroke:#808080;stroke-width:1.85254002;stroke-linecap:butt;stroke-linejoin:miter;stroke-miterlimit:10;stroke-dasharray:none;stroke-opacity:1"
       id="path236"
       inkscape:connector-curvature="0" /><path
       d="m 114.69817,30.061626 66.6916,0 0,66.69161 -66.6916,0 0,-66.69161 z"
       style="fill:#c3c3c3;fill-opacity:1;fill-rule:evenodd;stroke:none"
       id="path238"
       inkscape:connector-curvature="0" /><path
       d="m 114.69817,30.061626 66.6916,0 0,66.69161 -66.6916,0 0,-66.69161 z"
       style="fill:none;stroke:#c3c3c3;stroke-width:1.85254002;stroke-linecap:butt;stroke-linejoin:miter;stroke-miterlimit:10;stroke-dasharray:none;stroke-opacity:1"
       id="path240"
       inkscape:connector-curvature="0" /><path
       d="m 120.25617,24.503626 66.6916,0 0,66.691604 -66.6916,0 0,-66.691604 z"
       style="fill:#808080;fill-opacity:1;fill-rule:evenodd;stroke:none"
       id="path242"
       inkscape:connector-curvature="0" /><path
       d="m 120.25617,24.503626 66.6916,0 0,66.691604 -66.6916,0 0,-66.691604 z"
       style="fill:none;stroke:#808080;stroke-width:1.85254002;stroke-linecap:butt;stroke-linejoin:miter;stroke-miterlimit:10;stroke-dasharray:none;stroke-opacity:1"
       id="path244"
       inkscape:connector-curvature="0" /><path
       d="m 59.125674,40.619626 13.8941,0 0,13.8941 -13.8941,0 0,-13.8941 z"
       style="fill:none;stroke:#000000;stroke-width:0.61751497;stroke-linecap:butt;stroke-linejoin:miter;stroke-miterlimit:10;stroke-dasharray:none;stroke-opacity:1"
       id="path246"
       inkscape:connector-curvature="0" /><path
       d="m 73.019174,40.619626 96.702996,0"
       style="fill:none;stroke:#000000;stroke-width:0.61751497;stroke-linecap:butt;stroke-linejoin:miter;stroke-miterlimit:10;stroke-dasharray:none;stroke-opacity:1"
       id="path248"
       inkscape:connector-curvature="0" /><path
       d="m 59.125574,54.513626 110.596596,-13.894"
       style="fill:none;stroke:#000000;stroke-width:0.61751497;stroke-linecap:butt;stroke-linejoin:miter;stroke-miterlimit:10;stroke-dasharray:none;stroke-opacity:1"
       id="path250"
       inkscape:connector-curvature="0" /><path
       d="m 73.019174,54.513626 96.702996,-13.894"
       style="fill:none;stroke:#000000;stroke-width:0.61751497;stroke-linecap:butt;stroke-linejoin:miter;stroke-miterlimit:10;stroke-dasharray:none;stroke-opacity:1"
       id="path252"
       inkscape:connector-curvature="0" /><path
       d="m 145.26917,68.40763 77.251,-2.779"
       style="fill:none;stroke:#000000;stroke-width:0.61751497;stroke-linecap:butt;stroke-linejoin:miter;stroke-miterlimit:10;stroke-dasharray:none;stroke-opacity:1"
       id="path254"
       inkscape:connector-curvature="0" /><path
       d="m 145.26917,73.96563 77.251,-8.337"
       style="fill:none;stroke:#000000;stroke-width:0.61751497;stroke-linecap:butt;stroke-linejoin:miter;stroke-miterlimit:10;stroke-dasharray:none;stroke-opacity:1"
       id="path256"
       inkscape:connector-curvature="0" /><path
       d="m 141.13617,69.31863 5.55764,0 0,5.55764 -5.55764,0 0,-5.55764 z"
       style="fill:none;stroke:#000000;stroke-width:0.61751497;stroke-linecap:butt;stroke-linejoin:miter;stroke-miterlimit:10;stroke-dasharray:none;stroke-opacity:1"
       id="path258"
       inkscape:connector-curvature="0" /><path
       d="m 286.29617,130.37565 38.889,-22.84"
       style="fill:none;stroke:#000000;stroke-width:0.61751497;stroke-linecap:butt;stroke-linejoin:miter;stroke-miterlimit:10;stroke-dasharray:none;stroke-opacity:1"
       id="path260"
       inkscape:connector-curvature="0" /><path
       d="m 21.479772,48.277626 c 0,0 0,0 2.6749,6.481 2.6749,6.482004 8.0247,19.445004 11.934201,26.852004 3.9095,7.408 6.3787,9.26 8.5392,9.671 2.1605,0.412 4.012301,-0.617 8.950601,-8.436 4.9383,-7.819 12.9635,-22.428 16.2555,-29.527004 3.292,-7.099 1.852,-6.687 1.131,-6.481 -0.72,0.205 -0.72,0.205 -0.72,0.205"
       style="fill:none;stroke:#000000;stroke-width:3.08756995;stroke-linecap:butt;stroke-linejoin:miter;stroke-miterlimit:10;stroke-dasharray:none;stroke-opacity:1"
       id="path262"
       inkscape:connector-curvature="0" /><path
       d="m 28.269972,75.43863 c 0,0 0,0 4.7325,-1.029 23.662702,-5.144 23.662702,-5.144 23.662702,-5.144"
       style="fill:none;stroke:#000000;stroke-width:3.08756995;stroke-linecap:butt;stroke-linejoin:miter;stroke-miterlimit:10;stroke-dasharray:none;stroke-opacity:1"
       id="path264"
       inkscape:connector-curvature="0" /><g
       id="g266"
       transform="translate(-35.850827,-585.22035)"><text
         transform="matrix(1,0,0,-1,276.825,598.493)"
         style="font-variant:normal;font-weight:normal;font-size:8.64521027px;font-family:Helvetica;-inkscape-font-specification:Helvetica;writing-mode:lr-tb;fill:#000000;fill-opacity:1;fill-rule:nonzero;stroke:none"
         id="text268"><tspan
           x="0 6.2418418 11.048578 15.855315 20.177919 24.984657 26.903894 31.71063 34.113998 36.033234 40.839973 45.646709"
           y="0"
           sodipodi:role="line"
           id="tspan270">Convolutions</tspan></text>
<text
         transform="matrix(1,0,0,-1,339.6009,599.51312)"
         style="font-variant:normal;font-weight:normal;font-size:8.64521027px;font-family:Helvetica;-inkscape-font-specification:Helvetica;writing-mode:lr-tb;fill:#000000;fill-opacity:1;fill-rule:nonzero;stroke:none"
         id="text272"><tspan
           x="0 5.766355 10.573092 15.379828 19.702435 24.509171 31.71063 36.517368 38.436604 40.355839 45.162579"
           y="0"
           sodipodi:role="line"
           id="tspan274">Subsampling</tspan></text>
</g><path
       d="m 377.03717,103.83165 58.025,-56.173024 -12.963,-0.617 -56.173,56.790024"
       style="fill:#808080;fill-opacity:1;fill-rule:evenodd;stroke:none"
       id="path276"
       inkscape:connector-curvature="0" /><path
       d="m 377.03717,103.83165 58.025,-56.173024 -12.963,-0.617 -56.173,56.790024 11.111,0 z"
       style="fill:none;stroke:#808080;stroke-width:1.85254002;stroke-linecap:butt;stroke-linejoin:miter;stroke-miterlimit:10;stroke-dasharray:none;stroke-opacity:1"
       id="path278"
       inkscape:connector-curvature="0" /><path
       d="m 194.33917,20.921626 0,33.963"
       style="fill:none;stroke:#000000;stroke-width:0.80000001;stroke-linecap:butt;stroke-linejoin:miter;stroke-miterlimit:10;stroke-dasharray:none;stroke-opacity:1"
       id="path280"
       inkscape:connector-curvature="0" /><path
       d="m 265.19217,26.060626 0,16.055"
       style="fill:none;stroke:#000000;stroke-width:0.80000001;stroke-linecap:butt;stroke-linejoin:miter;stroke-miterlimit:10;stroke-dasharray:none;stroke-opacity:1"
       id="path282"
       inkscape:connector-curvature="0" /><path
       d="m 97.84617,22.972626 0,14.203"
       style="fill:none;stroke:#000000;stroke-width:0.80000001;stroke-linecap:butt;stroke-linejoin:miter;stroke-miterlimit:10;stroke-dasharray:none;stroke-opacity:1"
       id="path284"
       inkscape:connector-curvature="0" /><path
       d="m 338.80417,21.299626 0,13.251"
       style="fill:none;stroke:#000000;stroke-width:0.80000001;stroke-linecap:butt;stroke-linejoin:miter;stroke-miterlimit:10;stroke-dasharray:none;stroke-opacity:1"
       id="path286"
       inkscape:connector-curvature="0" /><path
       d="m 423.90317,22.422626 0,17.363"
       style="fill:none;stroke:#000000;stroke-width:0.80000001;stroke-linecap:butt;stroke-linejoin:miter;stroke-miterlimit:10;stroke-dasharray:none;stroke-opacity:1"
       id="path288"
       inkscape:connector-curvature="0" /><g
       id="g290"
       transform="translate(-35.850827,-585.22035)"><text
         transform="matrix(1,0,0,-1,108.922,598.493)"
         style="font-variant:normal;font-weight:normal;font-size:8.64521027px;font-family:Helvetica;-inkscape-font-specification:Helvetica;writing-mode:lr-tb;fill:#000000;fill-opacity:1;fill-rule:nonzero;stroke:none"
         id="text292"><tspan
           x="0 6.2418418 11.048578 15.855315 20.177919 24.984657 26.903894 31.71063 34.113998 36.033234 40.839973 45.646709"
           y="0"
           sodipodi:role="line"
           id="tspan294">Convolutions</tspan></text>
<text
         transform="matrix(1,-4e-8,-4e-8,-1,138.238,720.007)"
         style="font-variant:normal;font-weight:normal;font-size:7.78068018px;font-family:Helvetica;-inkscape-font-specification:Helvetica;writing-mode:lr-tb;fill:#000000;fill-opacity:1;fill-rule:nonzero;stroke:none"
         id="text296"><tspan
           x="0 5.617651 9.9437094 12.106738 14.269767 16.432796 20.758854 25.084913 27.247942 31.573999 34.164967 38.491024 40.654053 47.135361 51.461418 55.787476 59.677814"
           y="0"
           sodipodi:role="line"
           id="tspan298">C1: feature maps </tspan><tspan
           x="0 4.3260579 12.223449 16.549507 20.875565 24.765905 29.091963"
           y="7.7806602"
           sodipodi:role="line"
           id="tspan300">6@28x28</tspan></text>
<text
         transform="matrix(1,0,0,-1,202.179,599.513)"
         style="font-variant:normal;font-weight:normal;font-size:8.64521027px;font-family:Helvetica;-inkscape-font-specification:Helvetica;writing-mode:lr-tb;fill:#000000;fill-opacity:1;fill-rule:nonzero;stroke:none"
         id="text302"><tspan
           x="0 5.766355 10.573092 15.379828 19.702435 24.509171 31.71063 36.517368 38.436604 40.355839 45.162579"
           y="0"
           sodipodi:role="line"
           id="tspan304">Subsampling</tspan></text>
<text
         transform="matrix(1,-4e-8,-4e-8,-1,213.149,706.317)"
         style="font-variant:normal;font-weight:normal;font-size:7.78068018px;font-family:Helvetica;-inkscape-font-specification:Helvetica;writing-mode:lr-tb;fill:#000000;fill-opacity:1;fill-rule:nonzero;stroke:none"
         id="text306"><tspan
           x="0 5.1897135 9.5157719 11.678801 13.841829 16.004858 18.167889 20.330917 26.812223 31.138281 35.46434"
           y="0"
           sodipodi:role="line"
           id="tspan308">S2: f. maps</tspan><tspan
           x="0 4.3260579 12.223449 16.549507 20.875565 24.765905 29.091963"
           y="7.7806602"
           sodipodi:role="line"
           id="tspan310">6@14x14</tspan></text>
<text
         transform="matrix(1,-4e-8,-4e-8,-1,290.3655,718.78454)"
         style="font-variant:normal;font-weight:normal;font-size:7.78068018px;font-family:Helvetica;-inkscape-font-specification:Helvetica;writing-mode:lr-tb;fill:#000000;fill-opacity:1;fill-rule:nonzero;stroke:none"
         id="text312"><tspan
           x="0 5.1897135 9.5157719 11.678801 13.841829 16.004858 18.167889 20.330917 26.812223 31.138281 35.46434 39.354679 41.517708 45.843765 50.169827 58.067215 62.393272 66.283615"
           y="0"
           sodipodi:role="line"
           id="tspan314">S4: f. maps 16@5x5</tspan></text>
<text
         transform="matrix(1,-4e-8,-4e-8,-1,354.3876,705.31043)"
         style="font-variant:normal;font-weight:normal;font-size:7.78068018px;font-family:Helvetica;-inkscape-font-specification:Helvetica;writing-mode:lr-tb;fill:#000000;fill-opacity:1;fill-rule:nonzero;stroke:none"
         id="text316"><tspan
           x="0 5.617651 9.9437094 12.106738 14.269767 15.997078 20.323135 24.213476 28.539534"
           y="0"
           sodipodi:role="line"
           id="tspan318">C5: layer</tspan><tspan
           x="0 4.3260579 8.6521158"
           y="7.7806602"
           sodipodi:role="line"
           id="tspan320">120</tspan></text>
<text
         transform="matrix(1,-4e-8,-4e-8,-1,217.4746,727.04688)"
         style="font-variant:normal;font-weight:normal;font-size:7.78068018px;font-family:Helvetica;-inkscape-font-specification:Helvetica;writing-mode:lr-tb;fill:#000000;fill-opacity:1;fill-rule:nonzero;stroke:none"
         id="text322"><tspan
           x="0 5.617651 9.9437094 12.106738 14.269767 16.432796 18.595825 20.758854 27.24016 31.566219 35.892277 39.782616 41.945644 46.271706 50.597763 58.495152 62.821209 67.14727 71.037605 75.363663"
           y="0"
           sodipodi:role="line"
           id="tspan324">C3: f. maps 16@10x10</tspan></text>
<text
         transform="matrix(1,-4e-8,-4e-8,-1,392.3476,701.95727)"
         style="font-variant:normal;font-weight:normal;font-size:7.78068018px;font-family:Helvetica;-inkscape-font-specification:Helvetica;writing-mode:lr-tb;fill:#000000;fill-opacity:1;fill-rule:nonzero;stroke:none"
         id="text326"><tspan
           x="0 4.7539954 9.0800533 11.243083 13.406112 15.133423 19.45948 23.349821 27.675879"
           y="0"
           sodipodi:role="line"
           id="tspan328">F6: layer</tspan><tspan
           x="0 2.163029 6.4890871"
           y="7.7806602"
           sodipodi:role="line"
           id="tspan330"> 84</tspan></text>
<text
         transform="matrix(1,0,0,-1,386.284,609.917)"
         style="font-variant:normal;font-weight:normal;font-size:8.64521027px;font-family:Helvetica;-inkscape-font-specification:Helvetica;writing-mode:lr-tb;fill:#000000;fill-opacity:1;fill-rule:nonzero;stroke:none"
         id="text332"><tspan
           x="0 5.2822232 10.08896 12.008197 13.927433 16.330801 20.653406 25.460144 30.26688 35.073616 39.880352 44.202957 46.606327 48.525562 53.332302"
           y="0"
           sodipodi:role="line"
           id="tspan334">Full connection</tspan></text>
<text
         transform="matrix(1,0,0,-1,420.5165,599.0567)"
         style="font-variant:normal;font-weight:normal;font-size:8.64521027px;font-family:Helvetica;-inkscape-font-specification:Helvetica;writing-mode:lr-tb;fill:#000000;fill-opacity:1;fill-rule:nonzero;stroke:none"
         id="text336"><tspan
           x="0 5.2822232 10.08896 12.008197 13.927433 16.330801 20.653406 25.460144 30.26688 35.073616 39.880352 44.202957 46.606327 48.525562 53.332302"
           y="0"
           sodipodi:role="line"
           id="tspan338">Full connection</tspan></text>
<text
         transform="matrix(1,0,0,-1,470.9767,610.8302)"
         style="font-variant:normal;font-weight:normal;font-size:8.64521027px;font-family:Helvetica;-inkscape-font-specification:Helvetica;writing-mode:lr-tb;fill:#000000;fill-opacity:1;fill-rule:nonzero;stroke:none"
         id="text340"><tspan
           x="0 6.7259736 11.53271 16.339447 20.662052 24.984657 26.903894 31.71063 36.517368 38.920734 43.24334 48.050076 52.856815 57.663551 62.470287 66.792892 69.196259 71.115494 75.922234 80.728973"
           y="0"
           sodipodi:role="line"
           id="tspan342">Gaussian connections</tspan></text>
</g><path
       d="m 451.19517,50.017626 -15.49,-2.581"
       style="fill:none;stroke:#000000;stroke-width:0.61751497;stroke-linecap:butt;stroke-linejoin:miter;stroke-miterlimit:10;stroke-dasharray:none;stroke-opacity:1"
       id="path344"
       inkscape:connector-curvature="0" /><g
       id="g346"
       transform="translate(-35.850827,-585.22035)"><text
         transform="matrix(1,-4e-8,-4e-8,-1,431.414,702.859)"
         style="font-variant:normal;font-weight:normal;font-size:7.78068018px;font-family:Helvetica;-inkscape-font-specification:Helvetica;writing-mode:lr-tb;fill:#000000;fill-opacity:1;fill-rule:nonzero;stroke:none"
         id="text348"><tspan
           x="0 6.053369 11.67102 16.425016 21.614729 27.23238"
           y="0"
           sodipodi:role="line"
           id="tspan350">OUTPUT</tspan><tspan
           x="0 2.163029 6.4890871"
           y="7.7807102"
           sodipodi:role="line"
           id="tspan352"> 10</tspan></text>
</g><path
       d="m 396.05617,105.89465 -18.625,-2.028"
       style="fill:none;stroke:#000000;stroke-width:0.61751497;stroke-linecap:butt;stroke-linejoin:miter;stroke-miterlimit:10;stroke-dasharray:none;stroke-opacity:1"
       id="path354"
       inkscape:connector-curvature="0" /><path
       d="m 368.39517,36.924626 22.498,3.32"
       style="fill:none;stroke:#000000;stroke-width:0.61751497;stroke-linecap:butt;stroke-linejoin:miter;stroke-miterlimit:10;stroke-dasharray:none;stroke-opacity:1"
       id="path356"
       inkscape:connector-curvature="0" /><path
       d="m 336.30717,107.55465 33.931,-4.426"
       style="fill:none;stroke:#000000;stroke-width:0.61751497;stroke-linecap:butt;stroke-linejoin:miter;stroke-miterlimit:10;stroke-dasharray:none;stroke-opacity:1"
       id="path358"
       inkscape:connector-curvature="0" /><path
       d="m 383.70117,28.441626 0,8.483"
       style="fill:none;stroke:#000000;stroke-width:0.80000001;stroke-linecap:butt;stroke-linejoin:miter;stroke-miterlimit:10;stroke-dasharray:none;stroke-opacity:1"
       id="path360"
       inkscape:connector-curvature="0" /><path
       d="m 449.53517,34.342626 0,7.377"
       style="fill:none;stroke:#000000;stroke-width:0.80000001;stroke-linecap:butt;stroke-linejoin:miter;stroke-miterlimit:10;stroke-dasharray:none;stroke-opacity:1"
       id="path362"
       inkscape:connector-curvature="0" /><path
       d="m 404.90817,39.875626 16.597,7.192"
       style="fill:none;stroke:#000000;stroke-width:0.61751497;stroke-linecap:butt;stroke-linejoin:miter;stroke-miterlimit:10;stroke-dasharray:none;stroke-opacity:1"
       id="path364"
       inkscape:connector-curvature="0" /></g></svg>